<?xml version="1.0" encoding="UTF-8"?>
<svg id="_レイヤー_1" data-name="レイヤー_1" xmlns="http://www.w3.org/2000/svg" version="1.1" viewBox="0 0 506.94 305.82">
  <!-- Generator: Adobe Illustrator 30.5.1, SVG Export Plug-In . SVG Version: 2.1.4 Build 3)  -->
  <defs>
    <style>
      .st0 {
        fill: #176be0;
      }

      .st1 {
        fill: #1769df;
      }

      .st2 {
        fill: #fff;
      }

      .st3 {
        fill: #f7bb15;
      }

      .st4 {
        fill: #132d51;
      }
    </style>
  </defs>
  <rect id="rect1" class="st2" x="194.39" y="59.51" width="250.44" height="225.46"/>
  <path class="st2" d="M24.48,305.48c-12.33,0-24.43-12.11-24.43-24.45L0,213.16c-.01-20.27,7.8-40.83,21.42-56.41,14.49-16.57,33.62-25.73,53.87-25.79l43.07-.14.5.05c27.58,3.02,51.62,21.28,62.75,47.66,3.5,8.29,6.13,16.28,8.91,24.73.7,2.14,1.42,4.31,2.16,6.51l47.51.19c15.68.07,28.66,13.02,29.56,29.49.45,8.33-2.79,17.01-8.68,23.24-5.22,5.52-12.07,8.57-19.27,8.58l-80.18.13c-.92,0-1.83-.04-2.74-.11.34,4.37.47,8.72-.11,13.98-1.07,9.8-9.68,20.28-20.79,20.28l-113.49-.08Z"/>
  <path class="st2" d="M99.07,140.1c-19.8,0-38.81-8.63-52.16-23.68-20.38-22.96-23.72-55.8-8.3-81.72C50.66,14.43,71.79,1.5,95.12.12c1.39-.08,2.79-.12,4.18-.12,22.21,0,43.3,10.68,56.4,28.57,12.53,17.09,16.6,38.65,11.15,59.14-5.51,20.72-20.01,37.64-39.77,46.42l-12.65,5.62v-1.4c-5.02,1.16-10.15,1.74-15.35,1.74h0Z"/>
  <path class="st2" d="M185.51,218.25l-10.92-33.73-.13-111.36c-.01-9.41,3.86-18.7,10.63-25.48,6.18-6.19,14.19-9.6,22.54-9.6l223.95.04c19.01,0,32.27,17.87,32.27,33.9l.02,72.58-8.86.14c-5.32.08-9.74.96-15.28,3.02l-12.11,4.5-.19-77.08h-20.66l.02-.02-195.22-.11-.09,143.69-25.98-.5Z"/>
  <path class="st2" d="M179.41,305.65c-9.02,0-17.93-4.46-23.83-11.94-5.55-7.03-7.58-15.86-5.58-24.21.97-4.05,4.59-6.91,8.75-6.91.02,0,78.44.53,78.44.53,1.88,0,3.98-.77,6.42-1.66,2.72-.99,5.8-2.12,9.37-2.46.27-.03.54-.04.81-.04,0,0,130.81-.82,130.83-.82,4.75,0,8.69,3.7,8.98,8.44.33,5.31,3.35,7.86,5.13,8.91,1.75,1.03,3.45,1.53,5.21,1.53,2,0,4.29-.65,6.78-1.94.08-.04.17-.09.26-.13,2.86-1.36,5.82-1.52,7.79-1.52.69,0,1.39.02,2.09.05.48.02.96.03,1.42.03.4,0,.55-.02.57-.02,2.77-.36,6.09-1.73,6.09-6.17,0-2.4.96-4.71,2.67-6.4,1.69-1.67,3.96-2.6,6.33-2.6.03,0,39.12.42,39.12.42,3.21.03,6.21,1.41,8.45,3.89,4.02,4.44,4.58,11.31,4.29,14.67-.02.25-.05.49-.1.73-1.87,16.9-15,27.78-33.67,27.78,0,0-276.62-.17-276.62-.17Z"/>
  <path class="st2" d="M403.88,285.87c-3.83,0-7.48-1.1-10.83-3.26-6.43-4.15-12.71-15.3-7.25-24.61l26.91-45.86c-8.85-14.93-9.83-32.36-2.45-47.68,8.06-16.72,24.57-27.65,43.08-28.52.82-.04,1.63-.06,2.44-.06,25.01,0,46.21,17.77,50.41,42.24,3.69,21.51-6.91,42.57-27.01,53.65-4.77,2.63-10.07,4.32-15.82,5.04,2.03,6.89-2.48,13.72-5.42,18.18l-.86,1.3c-1.69,2.59-4.55,4.08-7.54,4.08-.05,0-.11,0-.16,0l-11.9.36c1.98,4.74,1.63,9.75-.98,14.16-2.69,4.57-7.3,7.34-12.63,7.57l-8.96.42c-3.77,1.99-7.4,2.96-11.04,2.96ZM456.45,178.3c-.22,0-.44,0-.66.03-2.42.18-4.38,1.14-5.68,2.78-1.25,1.58-1.74,3.69-1.38,5.94.5,3.16,3.22,6.35,7.45,6.35h0c.36,0,.72-.02,1.09-.07,3.57-.42,7.15-3.68,6.7-8.2-.33-3.31-3.07-6.83-7.52-6.83Z"/>
  <path class="st2" d="M247.83,265.43l10.29-14.26c2.59-3.59,3.38-7.82,2.5-13.32l-1.69-10.45,155,.1-19.99,34.51-3.47,3.48h-3.75s-138.88-.06-138.88-.06Z"/>
  <path class="st2" d="M304.54,208.69c-4.94,0-10.3-2.79-13.34-6.94-2.65-3.62-3.42-8.08-2.11-12.24l27.24-86.26c2.6-8.25,8.72-13.38,15.97-13.38,1.3,0,2.62.17,3.93.5,6.14,1.56,9.19,5.06,10.67,7.73,2.31,4.17,2.54,9.22.67,15l-22.79,70.89-3.77,11.75c-3.4,10.58-10.75,12.88-16.31,12.94h-.16Z"/>
  <path class="st2" d="M357.23,193.21c-4.08,0-8.22-1.62-11.36-4.46-3.24-2.93-5.3-7.52-5.39-11.99-.08-3.99,1.38-7.67,4.12-10.37l17.59-17.3-17.99-17.56c-5.88-5.73-4.31-14.93.6-20.52,2.44-2.76,7.23-5.98,12.73-5.98,3.42,0,6.62,1.27,9.02,3.57l31.11,29.91c2.72,2.62,4.22,6.19,4.23,10.05.01,4.44-1.94,9-5.23,12.2l-29.22,28.32c-2.74,2.65-6.36,4.11-10.21,4.11Z"/>
  <path class="st2" d="M281.61,193.18c-3.58,0-6.92-1.32-9.42-3.71l-29.62-28.24c-3.39-3.23-5.27-7.51-5.27-12.05,0-4.53,1.86-8.8,5.24-12.03l30.05-28.66c2.37-2.26,5.54-3.51,8.91-3.51,5.01,0,9.49,2.68,12.01,5.19,1.25,1.24,5.34,5.78,5.31,11.94-.01,3.45-1.38,6.68-3.84,9.08l-18.36,17.99,20.92,20.28v1.15c.82,1.73,1.26,3.62,1.27,5.59.02,6.22-4.06,10.74-5.32,11.98-3.17,3.12-7.61,4.99-11.88,4.99Z"/>
  <path id="path2" class="st0" d="M123.42,125.9c-24.69,10.97-52.5,4.03-69.78-15.45-17.29-19.48-20.93-48.23-7.3-71.15,10.67-17.94,29.18-29,49.31-30.19,20.57-1.21,40.4,7.87,52.79,24.78,23,31.37,11.05,75.99-25.02,92.02h0Z"/>
  <path id="path3" class="st4" d="M429.27,66.18l-218.77-.12c-4.67,0-7.91,3.71-7.92,8.28l-.08,135.24-10.4-.2-8.51-26.28-.13-109.94c-.02-13.06,10.35-26.08,24.19-26.07l223.93.04c13.36,0,23.27,12.79,23.27,24.9l.02,63.72c-6.27.1-11.71,1.14-18.27,3.58l-.16-65.14c0-3.09-2.57-8-7.18-8h.01Z"/>
  <path id="path4" class="st4" d="M480.81,276.49c-1.25,13.93-12.18,20.33-24.78,20.33l-276.61-.17c-11.97,0-23.81-11.9-20.66-25.06l78.38.53c6.24.04,11.24-3.63,16.72-4.16l130.77-.82c.48,7.73,4.62,13.2,9.54,16.1,7.01,4.14,13.99,3.29,20.68-.16,2.5-1.19,6.39-.3,9.16-.66,8.29-1.09,13.93-6.9,13.93-15.09l39.02.42c3.06.03,4.12,5.95,3.87,8.76l-.02-.02ZM338.69,284.61c3.21-.05,3.61-4.9,2.64-6.57-.97-1.67-2.45-3-5.15-3h-37.95c-3.31-.01-5.13,2.95-4.81,5.64.25,2.13,1.98,4.58,4.93,4.54l40.34-.61Z"/>
  <path id="path5" class="st3" d="M449.56,251.39l-20.42.62c-1.41.04-2.55.34-3.24,1.34-.44.64-.67,1.72-.11,3.01l3.36,7.76c.97,2.24.72,4.37-.37,6.21-1.01,1.72-2.76,3.06-5.28,3.17l-11.16.52c-4.68,2.91-9.57,4.15-14.41,1.03-3.1-2-6.91-8.14-4.36-12.49l29.76-50.71c-9.29-12.44-12.02-28.81-4.95-43.47,6.31-13.09,19.45-22.69,35.4-23.44,21.08-.99,39.94,13.64,43.56,34.72,3.14,18.3-6.46,35.41-22.49,44.25-9.32,5.14-20.34,5.17-30.6,2.86-1.6.7-3.99,3.99-3.62,5.65,1.24,5.51,10.95,2.83,12.87,4.95,3.34,3.68-.14,8.21-3.94,14.03h0ZM455.12,169.35c-10.23.76-16.85,9.31-15.28,19.12,1.31,8.22,8.79,14.95,18.49,13.8,8.23-.98,15.55-8.4,14.6-18.02-.81-8.22-8-15.63-17.81-14.9h0Z"/>
  <path id="path6" class="st4" d="M386.72,256.5l-121.3-.06c4.38-6.07,5.24-12.86,4.08-20.02l128.81.08-11.58,19.99h0Z"/>
  <path id="path7" class="st1" d="M312.45,192.99c-1.45,4.51-3.73,6.65-7.85,6.7-2.96.04-8.27-3.19-6.92-7.47l27.24-86.26c1.54-4.89,4.77-7.97,9.1-6.87,5.96,1.51,6.72,5.88,4.99,11.25l-26.57,82.65h.01Z"/>
  <path id="path8" class="st1" d="M361.17,182.64c-2.77,2.68-6.93,1.55-9.28-.57-2.1-1.9-3.71-6.58-.99-9.26l24.14-23.73-24.56-23.98c-2.34-2.28-.4-6.46,1.07-8.13,1.88-2.13,6.25-4.27,8.76-1.86l31.1,29.91c2.68,2.58,1.31,7.03-1.04,9.32l-29.2,28.3Z"/>
  <path id="path9" class="st1" d="M288.54,173.29c2.86,2.78.22,6.93-1.37,8.5-2.14,2.11-6.31,3.52-8.76,1.18l-29.63-28.25c-3.29-3.13-3.32-7.92-.03-11.06l30.05-28.66c2.36-2.25,6.46-.34,8.36,1.55,1.61,1.6,4.15,5.65,1.53,8.21l-24.96,24.46,24.81,24.06h0Z"/>
  <path id="path1" class="st0" d="M123.53,234.13l6.13,15.53c3.55,8.99,10.86,15.44,19.96,19.11.51,5.38.82,9.85.2,15.53-.58,5.31-5.51,12.27-11.86,12.26l-113.47-.08c-7.37,0-15.44-8.31-15.44-15.45l-.05-67.87c-.02-37.14,29.11-73.08,66.32-73.2l42.56-.14c24.94,2.73,45.67,19.06,55.44,42.21,5.06,11.99,8.41,23.88,12.92,36.71l53.91.22c11.62.05,20.01,9.98,20.61,20.98.56,10.34-7.34,22.31-18.98,22.33l-80.18.13c-11.34.02-21.06-7.64-24.6-17.66l-4.98-14.08c-.99-2.79-3.53-3.95-5.89-3.18-2.64.86-3.84,3.44-2.58,6.64h-.02Z"/>
</svg>